# Blender 3.3.0
# www.blender.org
mtllib Tshape.mtl
o 立方体
v 1.700000 -1.000000 0.300000
v 1.700000 1.000000 0.300000
v 1.700000 -1.000000 -0.300000
v 1.700000 1.000000 -0.300000
v 2.300000 -1.000000 0.300000
v 2.300000 1.000000 0.300000
v 2.300000 -1.000000 -0.300000
v 2.300000 1.000000 -0.300000
v 2.300000 0.300000 -0.300000
v 2.300000 -0.300000 -0.300000
v 2.300000 0.300000 0.300000
v 2.300000 -0.300000 0.300000
v 0.300000 0.300000 -0.300000
v 0.300000 -0.300000 -0.300000
v 0.300000 0.300000 0.300000
v 0.300000 -0.300000 0.300000
v -0.300000 -0.300000 1.000000
v -0.300000 0.300000 1.000000
v -0.300000 -0.300000 -1.000000
v -0.300000 0.300000 -1.000000
v 0.300000 -0.300000 1.000000
v 0.300000 0.300000 1.000000
v 0.300000 -0.300000 -1.000000
v 0.300000 0.300000 -1.000000
vn -1.0000 -0.0000 -0.0000
vn -0.0000 -0.0000 -1.0000
vn 1.0000 -0.0000 -0.0000
vn -0.0000 -0.0000 1.0000
vn -0.0000 -1.0000 -0.0000
vn -0.0000 1.0000 -0.0000
vt 0.375000 0.000000
vt 0.375000 1.000000
vt 0.125000 0.750000
vt 0.625000 0.000000
vt 0.625000 1.000000
vt 0.875000 0.750000
vt 0.375000 0.250000
vt 0.125000 0.500000
vt 0.625000 0.250000
vt 0.875000 0.500000
vt 0.375000 0.750000
vt 0.625000 0.750000
vt 0.375000 0.500000
vt 0.625000 0.500000
vt 0.000000 0.000000
vt 0.000000 0.000000
vt 0.000000 0.000000
vt 0.000000 0.000000
vt 0.000000 0.000000
vt 0.000000 0.000000
vt 0.000000 0.000000
vt 0.000000 0.000000
vt 0.375000 0.000000
vt 0.375000 1.000000
vt 0.125000 0.750000
vt 0.625000 0.000000
vt 0.625000 1.000000
vt 0.875000 0.750000
vt 0.375000 0.250000
vt 0.125000 0.500000
vt 0.625000 0.250000
vt 0.875000 0.500000
vt 0.375000 0.750000
vt 0.625000 0.750000
vt 0.375000 0.500000
vt 0.625000 0.500000
s 0
usemtl Material
f 1/1/1 2/4/1 4/9/1 3/7/1
f 3/7/2 4/9/2 8/14/2 7/13/2
f 7/13/3 8/14/3 6/12/3 5/11/3
f 5/11/4 6/12/4 2/5/4 1/2/4
f 3/8/5 7/13/5 5/11/5 1/3/5
f 8/14/6 4/10/6 2/6/6 6/12/6
f 9/15/6 13/19/6 15/21/6 11/17/6
f 12/18/4 11/17/4 15/21/4 16/22/4
f 16/22/1 15/21/1 13/19/1 14/20/1
f 14/20/5 10/16/5 12/18/5 16/22/5
f 10/16/3 9/15/3 11/17/3 12/18/3
f 14/20/2 13/19/2 9/15/2 10/16/2
f 17/23/1 18/26/1 20/31/1 19/29/1
f 19/29/2 20/31/2 24/36/2 23/35/2
f 23/35/3 24/36/3 22/34/3 21/33/3
f 21/33/4 22/34/4 18/27/4 17/24/4
f 19/30/5 23/35/5 21/33/5 17/25/5
f 24/36/6 20/32/6 18/28/6 22/34/6
